<svg width="100" height="100" viewBox="0 0 100 100" fill="none" xmlns="http://www.w3.org/2000/svg">
    <rect width="100" height="100" rx="50" fill="#D4E4FA" />
    <path
        d="M16.3906 50.0859H26.2812V43.9922C26.2812 43.4922 26.2734 43.0859 26.2578 42.7734C26.2422 42.4453 26.2031 42.1797 26.1406 41.9766C26.0781 41.7734 25.9844 41.6172 25.8594 41.5078C25.75 41.3828 25.6016 41.2656 25.4141 41.1562C24.9766 40.9062 24.5 40.7812 23.9844 40.7812H23.2344V40.1953H32.3516V40.7812H31.6016C31.3984 40.7812 31.1797 40.8047 30.9453 40.8516C30.7266 40.8984 30.5156 40.9688 30.3125 41.0625C30.125 41.1562 29.9531 41.2734 29.7969 41.4141C29.6406 41.5547 29.5312 41.7188 29.4688 41.9062C29.3594 42.2344 29.3047 42.9297 29.3047 43.9922V57.7266C29.3047 58.2266 29.3125 58.6328 29.3281 58.9453C29.3594 59.2578 29.3984 59.5156 29.4453 59.7188C29.5078 59.9219 29.5938 60.0859 29.7031 60.2109C29.8125 60.3203 29.9609 60.4297 30.1484 60.5391C30.5859 60.7891 31.0703 60.9141 31.6016 60.9141H32.3516V61.5H23.2344V60.9141H23.9844C24.3438 60.9141 24.6641 60.8906 24.9453 60.8438C25.2266 60.7812 25.4688 60.6484 25.6719 60.4453C25.875 60.2266 26.0234 59.9062 26.1172 59.4844C26.2266 59.0469 26.2812 58.4609 26.2812 57.7266V51.2344H16.3906V57.7266C16.3906 58.2266 16.3984 58.6328 16.4141 58.9453C16.4297 59.2578 16.4688 59.5156 16.5312 59.7188C16.5938 59.9219 16.6797 60.0859 16.7891 60.2109C16.9141 60.3203 17.0703 60.4297 17.2578 60.5391C17.6953 60.7891 18.1719 60.9141 18.6875 60.9141H19.4609V61.5H10.3203V60.9141H11.0938C11.9531 60.9141 12.5859 60.6562 12.9922 60.1406C13.2422 59.8281 13.3672 59.0234 13.3672 57.7266V43.9922C13.3672 43.4766 13.3594 43.0625 13.3438 42.75C13.3281 42.4219 13.2891 42.1641 13.2266 41.9766C13.1641 41.7734 13.0781 41.6172 12.9688 41.5078C12.8594 41.3828 12.7109 41.2656 12.5234 41.1562C12.0859 40.9062 11.6094 40.7812 11.0938 40.7812H10.3203V40.1953H19.4609V40.7812H18.6875C18.5 40.7812 18.2891 40.8047 18.0547 40.8516C17.8359 40.8984 17.625 40.9688 17.4219 41.0625C17.2344 41.1562 17.0625 41.2734 16.9062 41.4141C16.75 41.5547 16.6406 41.7188 16.5781 41.9062C16.4531 42.2812 16.3906 42.9766 16.3906 43.9922V50.0859ZM39.7578 41.3672V49.7812H44.4219C45.1094 49.7812 45.6641 49.7188 46.0859 49.5938C46.5078 49.4688 46.8359 49.2812 47.0703 49.0312C47.3203 48.7812 47.4922 48.4609 47.5859 48.0703C47.6797 47.6797 47.7422 47.2188 47.7734 46.6875H48.3594V54.0938H47.7734C47.6953 53.4844 47.6016 52.9766 47.4922 52.5703C47.3984 52.1641 47.2344 51.8438 47 51.6094C46.7812 51.3594 46.4688 51.1875 46.0625 51.0938C45.6562 50.9844 45.1094 50.9297 44.4219 50.9297H39.7578V57.9609C39.7578 58.4922 39.7656 58.9141 39.7812 59.2266C39.7969 59.5391 39.8594 59.7812 39.9688 59.9531C40.0781 60.1094 40.25 60.2109 40.4844 60.2578C40.7188 60.3047 41.0625 60.3281 41.5156 60.3281H45.125C45.7344 60.3281 46.25 60.3125 46.6719 60.2812C47.0938 60.25 47.4531 60.1875 47.75 60.0938C48.0625 60 48.3359 59.875 48.5703 59.7188C48.8047 59.5469 49.0547 59.3359 49.3203 59.0859C49.9453 58.4766 50.6094 57.5 51.3125 56.1562H51.9453L50.0938 61.5H33.6875V60.9141H34.4375C34.6406 60.9141 34.8516 60.8906 35.0703 60.8438C35.2891 60.7969 35.4922 60.7344 35.6797 60.6562C35.8828 60.5625 36.0625 60.4453 36.2188 60.3047C36.375 60.1641 36.4844 60 36.5469 59.8125C36.6719 59.4688 36.7344 58.7812 36.7344 57.75V43.9219C36.7344 42.5625 36.6016 41.7266 36.3359 41.4141C35.9609 40.9922 35.3281 40.7812 34.4375 40.7812H33.6875V40.1953H50.0938V44.8594H49.7188C49.5625 44.0938 49.3906 43.4844 49.2031 43.0312C49.0312 42.5625 48.7969 42.2031 48.5 41.9531C48.2031 41.7031 47.8203 41.5469 47.3516 41.4844C46.8984 41.4062 46.3125 41.3672 45.5938 41.3672H39.7578ZM71.1172 55.6172L71.6328 55.7109L69.8047 61.5H53.3047V60.9141H54.125C55 60.9141 55.6406 60.625 56.0469 60.0469C56.2656 59.7031 56.375 58.9297 56.375 57.7266V43.9688C56.375 42.6562 56.2266 41.8281 55.9297 41.4844C55.5234 41.0156 54.9219 40.7812 54.125 40.7812H53.3047V40.1953H62.9609V40.7812C62.3828 40.7812 61.8984 40.8125 61.5078 40.875C61.1328 40.9219 60.8203 41 60.5703 41.1094C60.3203 41.2031 60.125 41.3203 59.9844 41.4609C59.8438 41.6016 59.7266 41.7578 59.6328 41.9297C59.4766 42.2422 59.3984 43.0469 59.3984 44.3438V57.7266C59.3984 58.4609 59.4531 58.9922 59.5625 59.3203C59.6719 59.6484 59.8906 59.875 60.2188 60C60.5 60.0938 61.3203 60.1406 62.6797 60.1406H64.2266C65.8672 60.1406 67.0156 60.0234 67.6719 59.7891C68 59.6797 68.3125 59.5234 68.6094 59.3203C68.9062 59.1172 69.1953 58.8516 69.4766 58.5234C69.7578 58.1953 70.0312 57.7969 70.2969 57.3281C70.5625 56.8594 70.8359 56.2891 71.1172 55.6172ZM78.8984 51.5391V57.7266C78.8984 59.0859 79.0469 59.9219 79.3438 60.2344C79.75 60.6875 80.3516 60.9141 81.1484 60.9141H81.9688V61.5H72.8516V60.9141H73.6484C74.5391 60.9141 75.1797 60.625 75.5703 60.0469C75.7891 59.7031 75.8984 58.9297 75.8984 57.7266V43.9688C75.8984 42.6406 75.7578 41.8125 75.4766 41.4844C75.0547 41.0156 74.4453 40.7812 73.6484 40.7812H72.8516V40.1953H80.6562C82.5312 40.1953 84.0312 40.3984 85.1562 40.8047C85.7031 40.9922 86.2109 41.2578 86.6797 41.6016C87.1641 41.9297 87.5781 42.3281 87.9219 42.7969C88.2812 43.25 88.5625 43.7578 88.7656 44.3203C88.9688 44.8672 89.0703 45.4609 89.0703 46.1016C89.0703 46.9609 88.9219 47.75 88.625 48.4688C88.3281 49.1875 87.8984 49.8047 87.3359 50.3203C86.7734 50.8359 86.0859 51.2422 85.2734 51.5391C84.4609 51.8203 83.5312 51.9609 82.4844 51.9609C81.4688 51.9609 80.2734 51.8203 78.8984 51.5391ZM78.8984 50.625C79.4609 50.7344 79.9531 50.8203 80.375 50.8828C80.7969 50.9297 81.1641 50.9531 81.4766 50.9531C82.0234 50.9531 82.5391 50.8438 83.0234 50.625C83.5078 50.3906 83.9297 50.0781 84.2891 49.6875C84.6641 49.2812 84.9531 48.7969 85.1562 48.2344C85.375 47.6719 85.4844 47.0625 85.4844 46.4062C85.4844 45.625 85.3672 44.9297 85.1328 44.3203C84.8984 43.7109 84.5781 43.1953 84.1719 42.7734C83.7656 42.3516 83.2891 42.0312 82.7422 41.8125C82.1953 41.5938 81.6016 41.4844 80.9609 41.4844C80.4297 41.4844 79.7422 41.5781 78.8984 41.7656V50.625Z"
        fill="black" />
</svg>
    